<svg width="1440" height="1024" viewBox="0 0 1440 1024" fill="none" xmlns="http://www.w3.org/2000/svg">
<rect width="1440" height="1024" fill="white"/>
<path fill-rule="evenodd" clip-rule="evenodd" d="M735.687 386.53C742.299 391.561 746.235 397.952 741.941 405.146C738.318 411.216 730.004 411.278 721.126 409.045C722.456 412.814 724.013 416.501 725.787 420.088C729.65 427.896 732.887 433.533 735.5 437C740.471 443.597 749.657 437.295 763.058 418.095C768.348 410.516 777.007 406 786.25 406C787.095 406 787.937 406.086 788.765 406.256C795.51 407.645 799.853 414.24 798.464 420.986C783.574 493.31 771.756 532.767 763.011 539.356C749.015 549.903 736.01 596.52 736.01 596.52L657.446 585.127L648.719 550.861C646.063 540.431 645.622 529.56 647.427 518.949L666.936 404.215C668.24 396.549 670.654 389.114 674.103 382.145L681.459 367.28C687.228 355.621 699.481 348.615 712.455 349.556L782.64 354.648C788.613 355.081 793.826 358.855 796.102 364.394C799.417 372.46 795.566 381.685 787.5 385C780.912 387.707 763.641 388.217 735.687 386.53Z" fill="#8093B8"/>
<path fill-rule="evenodd" clip-rule="evenodd" d="M655 450.25L641.242 473.589C641.081 473.863 640.931 474.144 640.794 474.431L592 576.5L601 630L679 570.5L675 512L652 527.5L664.424 453.687C664.892 450.909 663.019 448.278 660.241 447.81C658.157 447.46 656.073 448.43 655 450.25Z" fill="#9AACD3"/>
<path fill-rule="evenodd" clip-rule="evenodd" d="M601.5 462.443C582.462 455.482 563.425 448.52 544.387 441.559C497.704 424.489 446.023 448.494 428.953 495.177C425.705 504.057 423.878 513.394 423.537 522.844L420 621H622C608.333 515.295 601.5 462.443 601.5 462.443Z" fill="#CBDBFE"/>
<path fill-rule="evenodd" clip-rule="evenodd" d="M592.863 271.983L639.102 268.136L647.067 214.65C647.312 213.012 648.838 211.881 650.477 212.125C651.789 212.32 652.817 213.354 653.005 214.668L661.591 274.722C662.451 280.736 658.273 286.308 652.259 287.168C652.21 287.175 652.161 287.182 652.112 287.188L597.788 294.21C590.999 295.088 584.747 290.394 583.696 283.629C582.838 278.103 586.621 272.927 592.147 272.069C592.385 272.032 592.623 272.003 592.863 271.983Z" fill="#DFE9FF"/>
<mask id="mask0" mask-type="alpha" maskUnits="userSpaceOnUse" x="421" y="61" width="208" height="407">
<path d="M474.694 462.822C471.455 464.069 467.886 464.603 464.196 464.25C462.828 464.119 461.473 463.873 460.147 463.514C447.157 459.995 439.478 446.613 442.996 433.623L448.446 413.5L448.368 413.544C444.1 415.896 439.062 416.419 434.403 414.994C424.889 412.084 419.536 402.013 422.446 392.5L450.898 293.548C453.241 282.025 457.435 267.827 464.206 247.261L465 244.5L465.033 244.758C473.37 219.572 485.428 185.086 502.446 135C502.763 134.069 512.128 105.936 512.446 105C514.46 102.315 518.269 101.771 520.954 103.785C522.043 104.602 522.826 105.76 523.178 107.075L529.446 130.5L538.048 67.3145C538.569 63.4838 542.097 60.8012 545.928 61.3226C548.657 61.6942 550.915 63.6318 551.696 66.2732L552.946 70.5002L624.569 303.272C627.471 312.704 628.946 322.518 628.946 332.387V426C628.946 448.644 610.59 467 587.946 467H492.743C486.275 467 480.146 465.5 474.694 462.822Z" fill="white"/>
</mask>
<g mask="url(#mask0)">
<path d="M474.694 462.822C471.455 464.069 467.886 464.603 464.196 464.25C462.828 464.119 461.473 463.873 460.147 463.514C447.157 459.995 439.478 446.613 442.996 433.623L448.446 413.5L448.368 413.544C444.1 415.896 439.062 416.419 434.403 414.994C424.889 412.084 419.536 402.013 422.446 392.5L450.898 293.548C453.241 282.025 457.435 267.827 464.206 247.261L465 244.5L465.033 244.758C473.37 219.572 485.428 185.086 502.446 135C502.763 134.069 512.128 105.936 512.446 105C514.46 102.315 518.269 101.771 520.954 103.785C522.043 104.602 522.826 105.76 523.178 107.075L529.446 130.5L538.048 67.3145C538.569 63.4838 542.097 60.8012 545.928 61.3226C548.657 61.6942 550.915 63.6318 551.696 66.2732L552.946 70.5002L624.569 303.272C627.471 312.704 628.946 322.518 628.946 332.387V426C628.946 448.644 610.59 467 587.946 467H492.743C486.275 467 480.146 465.5 474.694 462.822Z" fill="#CBDBFE"/>
<path fill-rule="evenodd" clip-rule="evenodd" d="M626.447 314C624.447 308.667 621.447 306.5 617.447 307.5C613.447 308.5 610.78 312.167 609.447 318.5C603.282 308.482 591.949 302.851 580.241 303.989C576.821 304.321 573.056 304.825 568.947 305.5C544.679 309.488 533.153 333.451 531.947 346C530.921 356.668 531.763 349.543 532 376.5C532.051 382.301 529.171 397.723 523.36 422.767C520.614 434.603 527.983 446.424 539.818 449.17C541.403 449.538 543.024 449.729 544.651 449.739C566.701 449.879 579.132 449.8 581.947 449.5C596.829 447.914 600.054 444.5 611 444.5C620.234 444.5 624.734 446.833 624.5 451.5C640.486 445.226 649.135 429.393 650.447 404C651.758 378.607 643.758 348.607 626.447 314Z" fill="#B0BFDC"/>
</g>
<path fill-rule="evenodd" clip-rule="evenodd" d="M579.946 426.5H587.946L585.645 436.983C585.471 437.778 584.831 438.388 584.028 438.525C582.94 438.711 581.906 437.979 581.72 436.89L579.946 426.5ZM618.946 426.5H626.946L624.645 436.983C624.471 437.778 623.831 438.388 623.028 438.525C621.94 438.711 620.906 437.979 620.72 436.89L618.946 426.5Z" fill="white"/>
<mask id="mask1" mask-type="alpha" maskUnits="userSpaceOnUse" x="750" y="608" width="355" height="342">
<path d="M946.151 711.026C968.453 656.575 983.754 626.349 992.053 620.349C1002.23 612.994 1013.74 614.726 1018.59 620.734C1034.69 605.112 1050.59 604.723 1066.27 619.565C1067.63 620.477 1068.87 621.396 1069.99 622.321C1075.39 622.237 1080.84 623.272 1086.35 625.426C1114.05 636.249 1110.07 658.855 1074.44 693.244L972.433 810.587C960.321 824.521 944.587 834.83 926.975 840.371C922.437 841.799 916.632 846.581 909.559 854.716C903.275 861.945 899.859 867.373 899.309 870.999C896.468 889.753 888.352 907.311 875.908 921.626L862.839 936.661C861.774 937.886 860.629 939.04 859.412 940.115C844.099 953.645 820.716 952.198 807.186 936.885L783.399 909.96L783.211 910.133L782.932 909.431L778.371 904.269L780.169 902.493L750.536 828.067L877.013 710.771L944.846 712.761C945.282 712.181 945.717 711.602 946.151 711.026Z" fill="white"/>
</mask>
<g mask="url(#mask1)">
<path d="M946.151 711.026C968.453 656.575 983.754 626.349 992.053 620.349C1002.23 612.994 1013.74 614.726 1018.59 620.734C1034.69 605.112 1050.59 604.723 1066.27 619.565C1067.63 620.477 1068.87 621.396 1069.99 622.321C1075.39 622.237 1080.84 623.272 1086.35 625.426C1114.05 636.249 1110.07 658.855 1074.44 693.244L972.433 810.587C960.321 824.521 944.587 834.83 926.975 840.371C922.437 841.799 916.632 846.581 909.559 854.716C903.275 861.945 899.859 867.373 899.309 870.999C896.468 889.753 888.352 907.311 875.908 921.626L862.839 936.661C861.774 937.886 860.629 939.04 859.412 940.115C844.099 953.645 820.716 952.198 807.186 936.885L783.399 909.96L783.211 910.133L782.932 909.431L778.371 904.269L780.169 902.493L750.536 828.067L877.013 710.771L944.846 712.761C945.282 712.181 945.717 711.602 946.151 711.026Z" fill="#8093B8"/>
</g>
<mask id="mask2" mask-type="alpha" maskUnits="userSpaceOnUse" x="538" y="371" width="51" height="28">
<path d="M574.946 371H552.946C545.214 371 538.946 377.268 538.946 385C538.946 392.732 545.214 399 552.946 399H574.946C582.678 399 588.946 392.732 588.946 385C588.946 377.268 582.678 371 574.946 371Z" fill="white"/>
</mask>
<g mask="url(#mask2)">
<path d="M574.946 371H552.946C545.214 371 538.946 377.268 538.946 385C538.946 392.732 545.214 399 552.946 399H574.946C582.678 399 588.946 392.732 588.946 385C588.946 377.268 582.678 371 574.946 371Z" fill="white"/>
<path d="M589.446 382C589.446 375.925 584.521 371 578.446 371C572.371 371 567.446 375.925 567.446 382V388C567.446 394.075 572.371 399 578.446 399C584.521 399 589.446 394.075 589.446 388V382Z" fill="#2B2B2B"/>
</g>
<mask id="mask3" mask-type="alpha" maskUnits="userSpaceOnUse" x="615" y="371" width="14" height="28">
<path d="M628.946 371V399C621.49 399 615.446 392.956 615.446 385.5V384.5C615.446 377.044 621.49 371 628.946 371Z" fill="white"/>
</mask>
<g mask="url(#mask3)">
<path d="M628.946 371V399C621.49 399 615.446 392.956 615.446 385.5V384.5C615.446 377.044 621.49 371 628.946 371Z" fill="white"/>
<path d="M644.946 382C644.946 375.925 640.021 371 633.946 371C627.871 371 622.946 375.925 622.946 382V388C622.946 394.075 627.871 399 633.946 399C640.021 399 644.946 394.075 644.946 388V382Z" fill="#2B2B2B"/>
</g>
<path fill-rule="evenodd" clip-rule="evenodd" d="M851 794.5C867.121 792.02 880.744 781.233 886.855 766.11L887 765.75C893.26 750.255 891.495 732.672 882.28 718.731L877.5 711.5C895.033 717.876 914.415 708.831 920.791 691.298C920.94 690.888 921.081 690.475 921.214 690.06L927 672C898.172 674.784 877.839 672.784 866 666C854.161 659.216 844.161 650.883 836 641L826.5 657L851 794.5Z" fill="#9AACD3"/>
<mask id="mask4" mask-type="alpha" maskUnits="userSpaceOnUse" x="615" y="794" width="422" height="158">
<path d="M877.451 865.347C933.177 846.455 966.027 838.173 976 840.5C988.225 843.352 994.472 853.179 993.117 860.777C1015.47 862.685 1026.2 874.426 1025.28 896L1022.21 897.235C1027.51 901.844 1031.45 907.766 1034.03 915C1044.03 943 1024.37 954.833 975.035 950.5H819.554C801.091 950.5 782.989 945.389 767.252 935.732C763.198 933.244 755.78 932 745 932C735.422 932 729.084 932.982 725.986 934.947C709.969 945.106 691.393 950.5 672.426 950.5H652.504C650.881 950.5 649.259 950.393 647.65 950.18C627.392 947.499 613.143 928.903 615.824 908.645L620.538 873.029L620.285 873L620.631 872.329L621.535 865.5L624.055 865.692L660.785 794.5L832.285 813L875.285 865.5C876.009 865.449 876.731 865.398 877.451 865.347Z" fill="white"/>
</mask>
<g mask="url(#mask4)">
<path d="M877.451 865.347C933.177 846.455 966.027 838.173 976 840.5C988.225 843.352 994.472 853.179 993.117 860.777C1015.47 862.685 1026.2 874.426 1025.28 896L1022.21 897.235C1027.51 901.844 1031.45 907.766 1034.03 915C1044.03 943 1024.37 954.833 975.035 950.5H819.554C801.091 950.5 782.989 945.389 767.252 935.732C763.198 933.244 755.78 932 745 932C735.422 932 729.084 932.982 725.986 934.947C709.969 945.106 691.393 950.5 672.426 950.5H652.504C650.881 950.5 649.259 950.393 647.65 950.18C627.392 947.499 613.143 928.903 615.824 908.645L620.538 873.029L620.285 873L620.631 872.329L621.535 865.5L624.055 865.692L660.785 794.5L832.285 813L875.285 865.5C876.009 865.449 876.731 865.398 877.451 865.347Z" fill="#B0BFDC"/>
<path d="M1027.14 895.351C1026.74 894.789 1025.98 893.888 1024.8 892.764C1022.89 890.937 1020.5 889.122 1017.58 887.436C1003.66 879.404 983.476 877.021 956.036 883.554C954.962 883.81 954.298 884.889 954.554 885.963C954.81 887.038 955.888 887.702 956.963 887.446C983.443 881.141 1002.59 883.4 1015.58 890.9C1018.21 892.423 1020.35 894.044 1022.04 895.654C1022.61 896.207 1023.09 896.715 1023.47 897.165C1023.69 897.418 1023.82 897.584 1023.86 897.649C1024.5 898.553 1025.74 898.772 1026.65 898.137C1027.55 897.502 1027.77 896.255 1027.14 895.351Z" fill="#7181A1"/>
<path d="M1033.16 912.5C1034.27 912.5 1035.16 913.396 1035.16 914.5C1035.16 915.605 1034.27 916.5 1033.16 916.5C1030.23 916.5 1016.43 913.331 1006.92 910.213C1000.73 908.187 995.972 906.145 993.066 904.117C988.922 901.225 988.047 897.568 992.037 894.848C999.992 889.423 1011.4 889.423 1026.16 894.613C1027.2 894.98 1027.75 896.121 1027.39 897.163C1027.02 898.205 1025.88 898.753 1024.84 898.387C1011.15 893.577 1001 893.577 994.29 898.153C993.108 898.959 993.196 899.33 995.355 900.837C997.859 902.584 1002.32 904.499 1008.16 906.412C1017.3 909.406 1030.77 912.5 1033.16 912.5ZM1008.5 858.5C1009.6 858.5 1010.5 859.396 1010.5 860.5C1010.5 861.605 1009.6 862.5 1008.5 862.5C1005.23 862.5 1002.9 862.247 998.103 861.516L997.968 861.496C991.132 860.455 987.8 860.252 982.519 860.949C975.479 861.879 966.94 864.584 955.676 869.711C954.67 870.169 953.484 869.725 953.027 868.719C952.569 867.714 953.013 866.528 954.019 866.071C965.616 860.792 974.521 857.971 981.995 856.984C987.736 856.226 991.391 856.448 998.57 857.541L998.706 857.562C1003.32 858.264 1005.49 858.5 1008.5 858.5Z" fill="#7181A1"/>
</g>
<path fill-rule="evenodd" clip-rule="evenodd" d="M608.287 357.529L622.522 402.096C623.99 406.694 621.453 411.612 616.855 413.081C616.044 413.34 615.199 413.479 614.348 413.494L609.7 413.575C605.835 413.642 602.647 410.564 602.579 406.698C602.579 406.665 602.578 406.631 602.578 406.598L602.43 358.451C602.424 356.794 603.763 355.447 605.42 355.441C606.729 355.437 607.889 356.282 608.287 357.529Z" fill="#7181A1"/>
<mask id="mask5" mask-type="alpha" maskUnits="userSpaceOnUse" x="387" y="507" width="491" height="359">
<path d="M425 598L389.407 756.468C379.724 799.577 406.821 842.373 449.93 852.055C455.685 853.348 461.564 854 467.462 854H549.217C586.56 854 620.793 833.192 637.986 800.042L672.5 733.5L621.5 865.5H644.942C670.565 865.5 694.788 853.804 710.723 833.738L726 814.5V832.5C726 850.725 740.775 865.5 759 865.5C778.809 865.5 796.499 853.099 803.253 834.478L810.5 814.5L818.557 830.006C829.889 851.815 852.422 865.5 877 865.5C853.687 795.951 840.353 740.118 837 698C833.647 655.882 837.481 592.382 848.5 507.5H749.5L571 614.5L425 598Z" fill="white"/>
</mask>
<g mask="url(#mask5)">
<path d="M425 598L389.407 756.468C379.724 799.577 406.821 842.373 449.93 852.055C455.685 853.348 461.564 854 467.462 854H549.217C586.56 854 620.793 833.192 637.986 800.042L672.5 733.5L621.5 865.5H644.942C670.565 865.5 694.788 853.804 710.723 833.738L726 814.5V832.5C726 850.725 740.775 865.5 759 865.5C778.809 865.5 796.499 853.099 803.253 834.478L810.5 814.5L818.557 830.006C829.889 851.815 852.422 865.5 877 865.5C853.687 795.951 840.353 740.118 837 698C833.647 655.882 837.481 592.382 848.5 507.5H749.5L571 614.5L425 598Z" fill="#9AACD3"/>
</g>
<path d="M543.861 436.414C549.169 431.106 553.154 428.5 555.446 428.5H627.946C629.051 428.5 629.946 427.605 629.946 426.5C629.946 425.395 629.051 424.5 627.946 424.5H555.446C551.738 424.5 547.057 427.561 541.032 433.586C540.251 434.367 540.251 435.633 541.032 436.414C541.813 437.195 543.079 437.195 543.861 436.414Z" fill="#7181A1"/>
<mask id="mask6" mask-type="alpha" maskUnits="userSpaceOnUse" x="540" y="371" width="48" height="28">
<path d="M587.073 378H540.819C543.24 373.815 547.764 371 552.946 371H574.946C580.128 371 584.653 373.815 587.073 378V378ZM586.437 393C583.907 396.627 579.704 399 574.946 399H552.946C548.189 399 543.986 396.627 541.456 393H586.437Z" fill="white"/>
</mask>
<g mask="url(#mask6)">
<path d="M587.073 378H540.819C543.24 373.815 547.764 371 552.946 371H574.946C580.128 371 584.653 373.815 587.073 378V378ZM586.437 393C583.907 396.627 579.704 399 574.946 399H552.946C548.189 399 543.986 396.627 541.456 393H586.437Z" fill="#7181A1"/>
</g>
<path fill-rule="evenodd" clip-rule="evenodd" d="M843.935 457.181L760.251 509.516L882.107 533.179L935.471 493.372C946.809 484.914 955.798 473.698 961.583 460.79L976.06 428.49C980.83 417.847 980.303 405.578 974.637 395.383L966.413 380.586L966.008 380.839C964.434 371.962 962.562 361.401 960.39 349.158C959.193 342.408 955.047 336.544 949.083 333.164L943.5 330L933.833 325.375L932.953 316.747L875.493 265.918C875.324 265.768 875.152 265.622 874.976 265.48C868.057 259.858 857.891 260.91 852.27 267.829C847.221 274.044 846.944 282.658 851.134 289.103C846.703 289.992 842.73 292.88 840.63 297.271C840.326 297.905 840.068 298.56 839.857 299.231C836.936 308.526 841.514 318.525 850.459 322.387L899.37 343.504C902.337 372.909 903.821 387.612 903.821 387.612C903.821 387.612 854.617 424.416 840.138 426.969C830.486 428.671 823.106 426.432 817.997 420.253L838.476 359.401C838.535 359.226 838.591 359.049 838.645 358.872C841.404 349.71 836.214 340.046 827.052 337.286C817.473 334.401 807.335 339.653 804.167 349.143C785.319 405.606 776.819 439.084 778.669 449.575C781.713 466.834 759.432 509.798 759.432 509.798L843.935 457.181Z" fill="#B0BFDC"/>
<mask id="mask7" mask-type="alpha" maskUnits="userSpaceOnUse" x="616" y="371" width="13" height="28">
<path d="M628.946 378H616.819C619.24 373.815 623.764 371 628.946 371V378ZM628.946 399C624.189 399 619.986 396.627 617.456 393H628.946V399Z" fill="white"/>
</mask>
<g mask="url(#mask7)">
<path d="M628.946 378H616.819C619.24 373.815 623.764 371 628.946 371V378ZM628.946 399C624.189 399 619.986 396.627 617.456 393H628.946V399Z" fill="#7181A1"/>
</g>
<path fill-rule="evenodd" clip-rule="evenodd" d="M889.887 242.546L823.461 240.578C816.346 240.367 810.206 245.529 809.19 252.574L787.865 400.499L870.907 410.862L883.927 401.841L903.346 258.418C904.383 250.756 899.013 243.704 891.351 242.666C890.866 242.601 890.377 242.56 889.887 242.546Z" fill="#2B2B2B"/>
<path d="M837.5 398C831.701 398 827 393.299 827 387.5C827 381.701 831.701 377 837.5 377C843.299 377 848 381.701 848 387.5C848 393.299 843.299 398 837.5 398ZM837.5 394C841.09 394 844 391.09 844 387.5C844 383.91 841.09 381 837.5 381C833.91 381 831 383.91 831 387.5C831 391.09 833.91 394 837.5 394ZM865.364 248.846C865.653 248.856 865.816 248.843 865.888 248.824C865.884 248.825 865.882 248.825 865.912 248.8C866.025 248.707 866.148 248.518 866.255 248.222C866.413 247.786 866.481 247.342 866.523 246.14L866.528 245.986L867.731 241.083L870.644 241.798L869.515 246.401C869.461 247.785 869.347 248.495 869.076 249.243C868.797 250.014 868.38 250.653 867.821 251.114C867.132 251.682 866.414 251.885 865.259 251.844L845.399 251.151C844.244 251.111 843.541 250.859 842.894 250.244C842.369 249.745 841.997 249.078 841.772 248.29C841.546 247.496 841.486 246.756 841.538 245.268L841.543 245.113L842.746 240.21L845.66 240.925L844.531 245.526C844.497 246.613 844.536 247.042 844.658 247.468C844.744 247.77 844.854 247.968 844.96 248.068C844.988 248.096 844.986 248.096 844.981 248.093C845.051 248.118 845.213 248.143 845.504 248.153L865.364 248.846Z" fill="white"/>
<mask id="mask8" mask-type="alpha" maskUnits="userSpaceOnUse" x="338" y="854" width="271" height="97">
<path d="M396.255 886.618L338 950.5H609L581.467 903.474C563.525 872.831 530.679 854 495.17 854H470.145C442.024 854 415.203 865.84 396.255 886.618Z" fill="white"/>
</mask>
<g mask="url(#mask8)">
<path d="M396.255 886.618L338 950.5H609L581.467 903.474C563.525 872.831 530.679 854 495.17 854H470.145C442.024 854 415.203 865.84 396.255 886.618Z" fill="#DFE9FF"/>
<path d="M370.523 905.272L373.773 901.772C397.166 923.722 421.735 934.642 447.551 934.642C468.269 934.642 491.264 924.653 506.299 907.808C524.173 887.782 529.857 860.128 519.88 826.81L524.44 825.43C534.888 860.321 528.847 889.714 509.844 911.006C493.892 928.879 469.601 939.43 447.551 939.43C420.453 939.43 394.753 928.008 370.523 905.272ZM579.094 893.67L580.906 898.33C551.959 909.587 540.009 927.984 544.464 954.079L539.536 954.921C534.658 926.35 548.041 905.746 579.094 893.67Z" fill="white"/>
<path d="M377.523 886.005C397.758 904.918 419.242 914.43 441.904 914.43C460.37 914.43 480.695 905.635 494.048 890.733C509.954 872.981 515.01 848.477 506.277 819.43L501.701 820.794C509.966 848.286 505.265 871.07 490.483 887.567C478.05 901.443 459.028 909.675 441.904 909.675C420.534 909.675 400.187 900.666 380.793 882.538L377.523 886.005Z" fill="white"/>
</g>
<path fill-rule="evenodd" clip-rule="evenodd" d="M633.947 303.5C638.447 321.5 633.947 330 618.947 330C608.947 330 598.947 325.334 588.947 316C594.28 325.334 591.28 330 579.947 330C562.947 330 560.447 319.442 560.447 318.5C560.447 317.559 559.833 301.492 563.447 298C565.304 296.206 573.813 296.206 588.974 298C615.956 289.667 630.947 291.5 633.947 303.5Z" fill="#CBDBFE"/>
<path fill-rule="evenodd" clip-rule="evenodd" d="M513.539 352.623C518.039 370.623 513.539 379.123 498.539 379.123C488.539 379.123 478.539 374.456 468.539 365.123C473.873 374.456 470.873 379.123 459.539 379.123C442.539 379.123 440.039 368.564 440.039 367.623C440.039 366.682 439.426 350.615 443.039 347.123C444.897 345.328 453.406 345.328 468.567 347.123C495.549 338.79 510.539 340.623 513.539 352.623Z" fill="#CBDBFE"/>
<path fill-rule="evenodd" clip-rule="evenodd" d="M851.5 226L840 199H838.5C815.304 199 796.5 180.196 796.5 157V108.5C796.5 85.304 815.304 66.5 838.5 66.5H968.5C991.696 66.5 1010.5 85.304 1010.5 108.5V157C1010.5 180.196 991.696 199 968.5 199H871.5L851.5 226Z" fill="#DFE9FF"/>
<path fill-rule="evenodd" clip-rule="evenodd" d="M755.664 503.879C755.664 503.879 780.163 462.141 778.027 444.746C776.729 434.172 786.968 401.186 808.746 345.786C812.406 336.475 822.805 331.761 832.22 335.143C841.826 338.595 847.337 348.681 845.053 358.629L832.736 412.264C831.397 418.096 835.039 423.909 840.871 425.248C841.896 425.484 842.95 425.569 844 425.5" fill="#B0BFDC"/>
<path fill-rule="evenodd" clip-rule="evenodd" d="M575.678 360.767L542.566 366.71C542.022 366.807 541.502 366.446 541.405 365.902C541.377 365.744 541.387 365.582 541.434 365.429L543.196 359.75C544.581 355.288 548.313 351.952 552.903 351.075L564.611 348.837L569.946 351.5L569.801 347.844L572.567 347.316C575.825 346.693 578.971 348.829 579.593 352.087C579.651 352.388 579.685 352.694 579.696 353L579.792 355.667C579.88 358.153 578.127 360.327 575.678 360.767ZM619.505 349.133C617.394 348.461 615.977 346.481 616.022 344.267L616.113 339.744C616.121 339.313 616.196 338.887 616.335 338.479C617.08 336.278 619.469 335.099 621.669 335.844L621.587 339.5L624.597 336.837L628.437 338.138C632.735 339.594 635.895 343.281 636.677 347.75L637.662 353.375C637.69 353.533 637.679 353.697 637.63 353.85C637.462 354.377 636.9 354.667 636.374 354.5L619.505 349.133Z" fill="#CBDBFE"/>
<path fill-rule="evenodd" clip-rule="evenodd" d="M600.739 461.84L617.684 452.83L619.733 469.148C620.131 472.32 619.13 475.508 616.99 477.883C612.923 482.396 605.967 482.757 601.454 478.69L597.651 475.262L595.617 484.104C594.622 488.428 591.876 492.145 588.035 494.367C580.386 498.791 570.599 496.177 566.174 488.528L558.034 474.454L547.28 496.724C545.169 501.096 541.187 504.273 536.455 505.36C527.843 507.339 519.257 501.962 517.278 493.35L512.557 472.802L504.712 484.96C502.086 489.03 497.757 491.691 492.939 492.197C484.151 493.12 476.279 486.744 475.355 477.956L473.358 458.945C489.628 457.491 500.99 457.51 507.446 459C509.135 459.39 510.56 459.897 511.722 460.522C515.493 458.802 520.734 458.295 527.446 459C533.516 459.638 541.732 461.367 552.095 464.186L551.104 462.474L602.464 454.339L600.739 461.84Z" fill="#CBDBFE"/>
<path d="M515.471 493.968C517.697 503.657 527.356 509.706 537.045 507.48C542.368 506.257 546.848 502.683 549.223 497.764L558.335 478.894L564.585 489.7C569.562 498.305 580.573 501.246 589.179 496.269C593.5 493.769 596.589 489.588 597.708 484.723L598.98 479.195L600.257 480.346C601.078 481.085 602.342 481.02 603.082 480.199C603.821 479.379 603.755 478.114 602.935 477.375L599.132 473.947C597.999 472.926 596.186 473.498 595.844 474.984L593.81 483.826C592.939 487.61 590.537 490.862 587.176 492.806C580.483 496.678 571.919 494.39 568.047 487.697L559.907 473.623C559.103 472.234 557.072 472.309 556.374 473.755L545.621 496.025C543.774 499.85 540.289 502.63 536.149 503.581C528.614 505.313 521.101 500.608 519.369 493.072L514.648 472.525C514.252 470.801 511.977 470.402 511.018 471.888L503.173 484.046C500.875 487.607 497.088 489.936 492.872 490.379C485.183 491.186 478.294 485.608 477.486 477.918L475.489 458.907C475.374 457.808 474.39 457.011 473.291 457.127C472.193 457.242 471.396 458.226 471.511 459.325L473.508 478.336C474.547 488.222 483.403 495.395 493.29 494.357C498.71 493.787 503.58 490.793 506.534 486.214L511.81 478.038L515.471 493.968Z" fill="#B0BFDC"/>
<path fill-rule="evenodd" clip-rule="evenodd" d="M477.865 282.729L431.945 289.383L412.152 239.059C411.546 237.517 409.804 236.759 408.262 237.365C407.028 237.851 406.259 239.09 406.371 240.412L411.514 300.858C412.029 306.912 417.354 311.401 423.407 310.886C423.456 310.882 423.505 310.878 423.554 310.873L478.066 305.495C484.878 304.822 489.914 298.842 489.416 292.014C489.01 286.437 484.158 282.245 478.581 282.651C478.341 282.669 478.103 282.695 477.865 282.729Z" fill="#DFE9FF"/>
<path fill-rule="evenodd" clip-rule="evenodd" d="M453.466 455.759L565 610L754.113 455.762C756.369 453.922 758.723 452.205 761.164 450.619L778.563 439.309C783.886 435.849 790.836 436.23 795.75 440.25C801.091 444.62 804.788 450.675 806.233 457.423L807 461L820.455 454.41C827.15 451.13 835.236 453.9 838.515 460.594C840.355 464.351 840.349 468.748 838.5 472.5L855.173 469.653C857.716 469.219 860.3 469.076 862.875 469.226L903.483 471.595C910.65 472.013 916.122 478.162 915.704 485.33C915.659 486.099 915.545 486.863 915.365 487.613L910.232 508.954C909.752 510.951 908.767 512.792 907.372 514.299L869.562 555.151C867.19 557.714 864.654 560.122 861.971 562.358L567.74 807.55C559.822 814.149 548.284 814.025 540.509 807.257L449.357 727.914C437.377 717.486 430.5 702.382 430.5 686.5L425.765 690.319C419.526 695.35 410.585 695.216 404.5 690C398.078 684.496 395.367 675.806 397.519 667.626L401.5 652.5L396.472 656.717C390.707 661.552 382.113 660.799 377.278 655.033C377.268 655.022 377.259 655.011 377.25 655C371.801 648.462 370.078 639.59 372.682 631.488L377.5 616.5L371.15 620.733C365.268 624.655 357.426 623.821 352.5 618.75C347.381 613.481 346.046 605.6 349.144 598.939L413.973 459.538C419.329 448.02 433.009 443.025 444.527 448.382C448.087 450.037 451.165 452.577 453.466 455.759Z" fill="#CBDBFE"/>
<path d="M518.666 543.394C518.055 542.474 516.813 542.223 515.893 542.834C514.973 543.445 514.723 544.687 515.334 545.607L558.834 611.107C559.472 612.068 560.791 612.291 561.71 611.593L586.71 592.593C587.589 591.924 587.76 590.669 587.092 589.79C586.424 588.911 585.169 588.74 584.29 589.408L560.987 607.118L518.666 543.394Z" fill="#B0BFDC"/>
<path d="M856.425 789.958C856.344 789.669 855.596 787.184 855.329 786.283C854.63 783.918 853.935 781.484 853.194 778.773C851.103 771.114 849.07 762.768 847.164 753.668C839.541 717.274 836 679.284 838.76 641.935C838.842 640.833 838.015 639.874 836.913 639.793C835.812 639.711 834.853 640.538 834.771 641.64C831.98 679.403 835.555 717.755 843.249 754.488C845.172 763.67 847.224 772.093 849.335 779.826C850.084 782.567 850.787 785.027 851.494 787.418C851.77 788.35 852.505 790.794 852.575 791.042C852.874 792.105 853.979 792.724 855.042 792.425C856.105 792.126 856.724 791.021 856.425 789.958Z" fill="#CBDBFE"/>
<path d="M528.62 132.841L544.708 179.64C545.067 180.685 546.205 181.241 547.25 180.882C548.294 180.523 548.85 179.385 548.491 178.34L532.403 131.541C532.044 130.496 530.906 129.941 529.861 130.3C528.817 130.659 528.261 131.797 528.62 132.841Z" fill="#7181A1"/>
<mask id="mask9" mask-type="alpha" maskUnits="userSpaceOnUse" x="459" y="352" width="43" height="54">
<path d="M491.284 405.925C469.761 405.032 459 396.163 459 379.318C459 361.991 470.386 352.902 493.158 352.051C492.59 353.115 492.17 354.558 492 356.5C491.435 362.956 494.488 366.132 501.16 366.028C489.566 375.118 483.68 383.275 483.5 390.5C483.342 396.836 486.112 402.544 491.284 405.925Z" fill="white"/>
</mask>
<g mask="url(#mask9)">
<path d="M491.284 405.925C469.761 405.032 459 396.163 459 379.318C459 361.991 470.386 352.902 493.158 352.051C492.59 353.115 492.17 354.558 492 356.5C491.435 362.956 494.488 366.132 501.16 366.028C489.566 375.118 483.68 383.275 483.5 390.5C483.342 396.836 486.112 402.544 491.284 405.925Z" fill="#B0BFDC"/>
</g>
<path d="M930.529 319.835C930.344 318.746 931.077 317.713 932.166 317.529C933.255 317.344 934.287 318.076 934.472 319.165L945.54 384.341C947.168 393.927 943.705 403.672 936.393 410.083L910.819 432.504C909.988 433.232 908.725 433.149 907.996 432.319C907.268 431.488 907.351 430.225 908.182 429.496L933.756 407.075C940.024 401.58 942.992 393.228 941.596 385.01L930.529 319.835ZM964.025 381.812C963.853 380.721 964.597 379.697 965.688 379.525C966.779 379.353 967.804 380.097 967.976 381.188L970.9 399.705C971.992 406.621 970.453 413.694 966.588 419.531L947.668 448.105C947.058 449.025 945.817 449.278 944.896 448.668C943.975 448.058 943.723 446.817 944.333 445.896L963.253 417.323C966.566 412.319 967.885 406.257 966.949 400.329L964.025 381.812ZM900.93 341.474C901.221 342.54 900.592 343.639 899.527 343.93C898.461 344.22 897.362 343.592 897.071 342.527L894.071 331.527C893.78 330.461 894.408 329.361 895.474 329.071C896.54 328.78 897.639 329.408 897.93 330.474L900.93 341.474ZM819.502 335.927C819.542 334.823 820.47 333.961 821.574 334.002C822.678 334.042 823.54 334.97 823.499 336.074C822.802 355.075 815.59 366.253 801.888 368.962C800.805 369.177 799.753 368.472 799.538 367.388C799.324 366.305 800.029 365.253 801.112 365.038C812.744 362.738 818.866 353.249 819.502 335.927Z" fill="#7181A1"/>
<path d="M877.468 138.528V147.952H868.788V155.02H857.628V147.952H827V138.528L857.628 111.62H868.788V138.528H877.468ZM839.028 138.528H857.628V122.78L839.028 138.528ZM905.802 155.64C888.566 155.64 880.382 147.704 880.382 133.258C880.382 118.874 888.566 111 905.802 111C922.976 111 931.222 118.936 931.222 133.258C931.222 147.642 922.976 155.64 905.802 155.64ZM905.802 146.278C915.598 146.278 920.062 141.38 920.062 133.258C920.062 125.198 915.598 120.362 905.802 120.362C896.006 120.362 891.542 125.136 891.542 133.258C891.542 141.442 896.006 146.278 905.802 146.278ZM985.348 138.528V147.952H976.668V155.02H965.508V147.952H934.88V138.528L965.508 111.62H976.668V138.528H985.348ZM946.908 138.528H965.508V122.78L946.908 138.528Z" fill="white"/>
</svg>
